<svg xmlns="http://www.w3.org/2000/svg" width="99.42" height="55" viewBox="0 0 99.42 55"><g transform="translate(17.05 1.612)"><path d="M134.377,37.152a15.174,15.174,0,0,1,.076,1.725c0,.5.039,3.471.039,3.743,0,.211.016.911-.115.989-.1.058-.144-.27-.144-.27-.5-1.882-1.379-2.146-1.757-2.251a1.505,1.505,0,0,0-1.78,1.276c-.035.422-.179,1.788-.207,2.3-.126,2.336-.129,7.793-.129,7.793,0,.417-.051.848.36,1.067a1.452,1.452,0,0,0,.842.018L131.55,55.6s-1.375.465-1.674-.259c-.43.846-1.909.546-2.025.394-.03-.459-.028-1.23-.026-1.675,1.35-.015,1.187-.893,1.218-.952-.023-.268.015-8.512-.029-8.913a3.3,3.3,0,0,0-.456-1.905c-.753-.857-2.047.048-2.4,1.607,0,0-.25,1.495-.42,2.092-.031.059-.062,0-.149-.093-.105-.568-.059-3.451-.039-3.761s.055-1.966.058-2.165a.99.99,0,0,1,.473-.95c.327.008,2.251-.413,2.653-.51a47.078,47.078,0,0,0,4.947-1.633C133.834,36.851,134.259,36.823,134.377,37.152Z" transform="translate(-115.697 -36.862)" fill="#fff"/><path d="M180.06,51.768a5.932,5.932,0,0,1,.024,1.353c0,.339-.014,2.224.016,3.413,0,0-.02,3.267.01,3.743.267.476.856.087.915.711,0,.355.024.633-.392.782a12.438,12.438,0,0,0-2.268.318c-.311-.114-.505-.743-.475-.833.089-.505.748-.491.837-1a7.254,7.254,0,0,0,0-1.206q0-.741,0-1.482c0-1,0-1.995.013-2.992a14.292,14.292,0,0,0-.08-2.281,2.063,2.063,0,0,0-.951-.338.9.9,0,0,1-.416-.119c-.043-.4.034-.5.338-.676a2.38,2.38,0,0,1,1.4-.039A1.7,1.7,0,0,1,180.06,51.768Z" transform="translate(-155.286 -47.709)" fill="#fff"/><path d="M196.084,49.038a4.887,4.887,0,0,1,.119,1.388c0,.339-.041,1.616-.012,3.42s-.02,3.267.01,3.743c.267.475.869.106.915.711s.044.769-.372.917a19.624,19.624,0,0,0-2.287.182,1.07,1.07,0,0,1-.475-.832c.089-.505.809-.509.9-1.015.049-.407,0-4.249-.015-5.238a17.675,17.675,0,0,0-.115-2.706c-.3-.267-.535-.249-.951-.338a1.362,1.362,0,0,1-.416-.119c-.043-.4.034-.5.338-.676a2.25,2.25,0,0,1,1.357-.039A1.571,1.571,0,0,1,196.084,49.038Z" transform="translate(-167.595 -45.651)" fill="#fff"/><path d="M210.716,64.433c.287.223.269,1.079.265,1.392-.007.517-.082,1.032-.1,1.548-.035.793.019,2.024,1.094,1.945,1.249-.092,1.1-1.24,1.1-2.171,0-.655,0-1.314-.043-1.967-.027-.391-.588-.2-.616-.452a.645.645,0,0,1,.216-.608,1.847,1.847,0,0,1,1.478.259c.5.34.275,1.237.267,1.739-.01.543-.01,1.086-.012,1.63,0,.189-.135,1.21.121,1.276.3.089.821-.164.832.03a3.21,3.21,0,0,1-.836,1.466c-.51.393-.659-.558-1.059-.583-.281-.017-.607.337-.848.451a2.336,2.336,0,0,1-1.229.182c-1.252-.123-1.706-.958-1.748-2.109-.021-.58,0-1.161.02-1.741a2.849,2.849,0,0,0-.158-1.512c-.115-.2-.887-.119-.828-.624a.665.665,0,0,1,.238-.446c.119-.149.682-.064.89-.035A2.032,2.032,0,0,1,210.716,64.433Z" transform="translate(-179.264 -57.663)" fill="#fff"/><path d="M160.882,80.658c-.386.028-1.037.608-1.316.7a1.539,1.539,0,0,1-1.327.015c-.4-.292-.345-.919-.332-1.353,0-.188.124-.223.346-.239.239-.017,2.168-.257,2.551-.349.441-.1.236-1.812-.043-2.307a1.6,1.6,0,0,0-.95-.743,3.084,3.084,0,0,0-2.133.244c-1.1.529-1.12,2.04-1.091,3.077a4.716,4.716,0,0,0,.357,1.836c.667,1.394,2.889,1.071,3.869.256.191-.158.493-.946.231-1.107A.268.268,0,0,0,160.882,80.658Zm-2.944-2.573a.829.829,0,0,1,.856-.9c.539-.032.969-.037,1.025.349a3.669,3.669,0,0,1,.065,1.243c-.583.136-1.914.246-1.914.246S157.937,78.525,157.938,78.085Z" transform="translate(-139.452 -67.025)" fill="#fff"/><path d="M312.486,85.549a2.206,2.206,0,0,0-1.492-.973,2.243,2.243,0,0,0-1.623.28c-1.166.736-1.341,2.7-1.077,3.918a3.074,3.074,0,0,0,.558,1.218,2.384,2.384,0,0,0,2.049,1.151,4.345,4.345,0,0,0,.809-.09c.408-.065,1.31-.9.929-1.183-.223-.169-1.045.151-1.336.161a1.612,1.612,0,0,1-1.787-1.223c-.042-.289.121-.365.34-.379.546-.036,1.112,0,1.66-.009.155,0,1.426.142,1.356-.222-.12-.621-.006-1.31-.122-1.947A2.04,2.04,0,0,0,312.486,85.549Zm-.879,1.939a17.767,17.767,0,0,1-1.935-.091,1.46,1.46,0,0,1,.441-1.656c.6-.281.979-.316,1.392.171A2.038,2.038,0,0,1,311.607,87.488Z" transform="translate(-255.425 -73.326)" fill="#fff"/><path d="M199.54,107.414c0,3.278.021,4.323.021,5.714.03.423-.363,1.149-.727.439-.119-.149-.119-.475-.178-.684a2.48,2.48,0,0,0-1.383-1.855,2.16,2.16,0,0,0-1.442-.141,2.633,2.633,0,0,0-1.693,1.464,4.831,4.831,0,0,0-.376,1.957c-.006.148-.1,1.91-.075,1.913a3.65,3.65,0,0,0,1.818-.1c.059-.3-.032-.734.357-.862a.337.337,0,0,1,.208,0c.346.035.306.216.306.757l-.037,1.6a1.248,1.248,0,0,1-.121.73c-.03,0-.039.023-.093.065-.193.118-.349.019-.5-.035-.446-.3-.03-.773-.624-1.011-.476-.03-1.011-.149-1.278.3,0,0-.055,5.874,0,6.153a1.376,1.376,0,0,0,1.337.208,5.382,5.382,0,0,1,.088,1.794.518.518,0,0,1-.294.4,1.8,1.8,0,0,1-1.742-.515,1.758,1.758,0,0,1-1.71.584.33.33,0,0,1-.207-.269c.031-.451,0-.746.006-1.215-.012-.15-.058-.568.261-.568.766,0,.823-.371.823-.609.022-.617-.006-1.115,0-1.624s-.07-8.5-.07-11c0-.448-.839-.588-1.733-1.032,0,0-.012-1.77.029-2.229a7.3,7.3,0,0,1,3.062,1.546c.267,0,2.042-1.962,4.459-1.962A11.811,11.811,0,0,1,199.54,107.414Z" transform="translate(-165.384 -90.764)" fill="#fff"/><path d="M92.767,107.414c0,3.278.021,3.959.021,5.351.03.424-.363,1.149-.726.439-.119-.149-.105-.48-.178-.683a2.5,2.5,0,0,0-1.383-1.492,2.16,2.16,0,0,0-1.442-.141,2.632,2.632,0,0,0-1.693,1.464,4.831,4.831,0,0,0-.377,1.957c-.006.148-.1,1.91-.075,1.913a3.649,3.649,0,0,0,1.818-.1c.059-.3-.032-.734.357-.862a.336.336,0,0,1,.208,0c.347.035.306.216.306.757l-.036,1.6a1.245,1.245,0,0,1-.121.73c-.03,0-.039.023-.093.065-.193.118-.349.019-.5-.035-.446-.3-.03-.773-.624-1.011-.475-.03-1.011-.149-1.278.3,0,0-.054,5.874,0,6.153a1.377,1.377,0,0,0,1.338.208,5.381,5.381,0,0,1,.088,1.794.519.519,0,0,1-.294.4,1.8,1.8,0,0,1-1.742-.515,1.758,1.758,0,0,1-1.71.584.33.33,0,0,1-.207-.269c.031-.451,0-.746.006-1.215-.012-.15-.058-.568.261-.568.766,0,.823-.371.823-.609.022-.617-.006-1.115,0-1.624s-.071-8.5-.071-11c0-.448-.839-.588-1.732-1.032,0,0-.012-1.77.029-2.229a7.3,7.3,0,0,1,3.062,1.546c.267,0,2.042-1.962,4.459-1.962A11.817,11.817,0,0,1,92.767,107.414Z" transform="translate(-83.707 -90.764)" fill="#fff"/><path d="M133.679,124.382c.1.029.8.336.887.692,0,0,.011,8.01,0,9.176.175.388.468.188.795.485a.883.883,0,0,1,.213.569.535.535,0,0,1-.275.358c-.594-.03-1.363-.03-1.932,0a5.5,5.5,0,0,1-1-.06c-.149-.03-.178-.149-.238-.267-.119-.357.149-.535.446-.624a.814.814,0,0,0,.628-.357c.089-.06.059-.214.077-.308.013-.069,0-7.891-.018-8.37-.327-.505-.791-.594-1.237-.832-.149-.178.089-.357.178-.505,0,0,.208-.264.3-.264A2.608,2.608,0,0,1,133.679,124.382Z" transform="translate(-120.639 -103.572)" fill="#fff"/><path d="M347.764,124.382c.1.029.8.336.888.692,0,0-.025.767,0,1.4v3.334s-.039,3.316,0,4.44c.175.388.468.188.795.485a.884.884,0,0,1,.213.569.535.535,0,0,1-.275.358c-.594-.03-1.363-.03-1.932,0a5.5,5.5,0,0,1-1-.06c-.149-.03-.179-.149-.238-.267-.119-.357.148-.535.445-.624a.814.814,0,0,0,.628-.357c.089-.06.06-.214.077-.308.013-.069,0-3.673,0-3.673s0-3.248,0-3.584a9.355,9.355,0,0,0-.018-1.113c-.327-.505-.791-.594-1.238-.832-.149-.178.089-.357.179-.505,0,0,.208-.264.3-.264A2.608,2.608,0,0,1,347.764,124.382Z" transform="translate(-284.406 -103.572)" fill="#fff"/><path d="M258.4,134.709c0,.132-.023.745,0,.989a6.887,6.887,0,0,1,1.135.025c.4.116.265.47.261.828-.02.213-.02.31-.249.426-.327,0-.553,0-.836,0-.089,0-.279.027-.31.116,0,.167,0,2.036,0,2.036-.036.5-.03,2.168,0,3.021.055.108.213.178.549.139.366-.042.436-.29.769-.446.118.031.425.065.423.214.023.156.011-.1,0,.129a1.52,1.52,0,0,1-.466.913,1.623,1.623,0,0,1-2.6-1.233c-.066-.843-.023-1.688-.006-2.532a8.608,8.608,0,0,0-.026-2.205c-.058-.217-.71-.165-.821-.172s-.461.118-.7-.123c.032-.237-.191-.994.257-1.138.3-.056.808.118,1.107-.057a8.591,8.591,0,0,0,1.22-1.494C258.437,134.131,258.4,134.543,258.4,134.709Z" transform="translate(-215.119 -111.281)" fill="#fff"/><path d="M294.172,141.012a5.165,5.165,0,0,1,.014.825c-.089.416-.741.164-.921.28-.33.215.865,2.615,1,3.011.044.134.075.259.223.318.534.214,1.358-2.815,1.483-3.193a6.11,6.11,0,0,1,.555-1.3c.126-.2,1.3-.108,1.356-.1a2.328,2.328,0,0,1-.083,1.209c-.193.111-.652-.138-.874.712A23,23,0,0,1,296,145.2c-.258.663-.521,1.325-.8,1.979-.1.228-.366,1.226-.668,1.264-.386,0-.6-.778-.734-1.129-.155-.427-.306-.815-.442-1.276-.208-.446-.282-1-.533-1.571-.253-.694-.535-1.427-.743-1.992-.177-.265-.207-.31-.474-.4-.256,0-.417.043-.6-.136-.178-.238-.089-.565-.089-.922.357-.327.758-.128,1.174-.187.178.03.424-.018.659,0,.388,0,1.306-.036,1.359,0S294.143,140.9,294.172,141.012Z" transform="translate(-242.197 -116.382)" fill="#fff"/><path d="M241.175,141.5c.155.321.318.907.107,1.183-.232.3-.646.048-.85-.152-.257-.25-.37-.6-.754-.686a.828.828,0,0,0-.991,1.05c.191.549.841.864,1.288,1.177a3.393,3.393,0,0,1,1.588,1.967,1.9,1.9,0,0,1-.93,1.995,2.341,2.341,0,0,1-2.93-.365c-.346-.466-.967-1.924-.082-2.171.544-.151.683.529.821.9.2.537.834,1.078,1.412.643.676-.508.3-1.379-.2-1.845-.6-.557-1.462-.827-1.945-1.511a2.216,2.216,0,0,1-.2-2.093c.414-.919,1.6-.99,2.466-.863a1.518,1.518,0,0,1,1.164.691C241.148,141.442,241.162,141.468,241.175,141.5Z" transform="translate(-201.097 -116.277)" fill="#fff"/><path d="M146.285,138.449c.428.134.937.118,1.169.559a2.243,2.243,0,0,1,.193.477,1.776,1.776,0,0,1,1.583-.5,2.21,2.21,0,0,1,1.17.424c.184.141.583.909.777.424a2.286,2.286,0,0,1,3.186-.323c.673.706.464,4.408.478,4.756s-.039.866.116,1.045a2.111,2.111,0,0,0,1.1.274.317.317,0,0,1,.087.435s-.148.484-.5.548a6.53,6.53,0,0,1-.992.032s-.836.136-.978-.219a4.693,4.693,0,0,1-.029-1.565c.01-.617.018-1.234.016-1.85a4.038,4.038,0,0,0-.179-2.02,1.01,1.01,0,0,0-1.418-.261,1.673,1.673,0,0,0-.52,1.382c-.03.919-.071,1.84-.06,2.76.006.457.076.952.043,1.405-.03.41-.3.333-.623.369-.777-.045-.524.006-.674-.6,0,0,.019-.633.019-.736,0-1.257.055-2.514-.067-3.769a1.051,1.051,0,0,0-.811-1.036c-.788-.129-.978.659-1.021,1.263a18.1,18.1,0,0,0,.015,2.458c.031.472.008,1.388.6,1.549.317.087.249.349.259.453a2.885,2.885,0,0,1,0,.351c-.017.185-1,.1-1.406.1l-1.342,0c-.132-.1-.011-.045-.143-.214a.608.608,0,0,1,.353-.663c.31-.155.44-.3.472-.575a15.5,15.5,0,0,0-.03-1.8c0-.767,0-1.536,0-2.3a1.422,1.422,0,0,0-1.419-1.387,1.631,1.631,0,0,1-.17-1.087c.065-.136.183-.1.295-.137A1.531,1.531,0,0,1,146.285,138.449Z" transform="translate(-130.981 -114.559)" fill="#fff"/><path d="M117.5,141.488a1.934,1.934,0,0,1,.163.413c.046.472.006,4.757.144,5.2.178.309.744.186.8.564.03.275.164.638-.177.8a5.979,5.979,0,0,1-.787,0h-2c-.123,0-.433.058-.56-.1l-.043-.363c-.025-.189.091-.281.211-.406a5.713,5.713,0,0,1,1.14-.5,35.358,35.358,0,0,0-.038-4.795c-.268-.412-1.215.025-1.251-.444-.049-.641-.007-.67.082-.867s.543-.148.742-.143S117.213,140.849,117.5,141.488Z" transform="translate(-107.672 -116.405)" fill="#fff"/><path d="M280.573,141.481l.018.028c.463.769.165,1.787.179,2.626.009.528-.021,1.057-.019,1.586,0,.4-.132,1,.105,1.364.18.273.778.222.817.582.03.275.164.638-.177.8a5.978,5.978,0,0,1-.787,0h-2c-.227,0-.531.055-.624-.213a.8.8,0,0,1,.238-.648c.425-.37,1.143-.185,1.225-.875a15.329,15.329,0,0,0,0-1.567q.011-.815-.018-1.63a3.042,3.042,0,0,0-.106-1.223c-.268-.412-1.215.025-1.251-.444-.049-.641-.007-.67.082-.867s.543-.148.742-.143A1.863,1.863,0,0,1,280.573,141.481Z" transform="translate(-232.385 -116.405)" fill="#fff"/><path d="M218.374,145.2c.773,0,1.473-.069,2.349-.092.54-.113.542-.556.542-.925,0-1.381-.592-4.044-2.579-3.474a2.87,2.87,0,0,0-1.805,2.348c-.333,1.88-.186,5.289,2.419,5.341a1.551,1.551,0,0,0,.961-.283c.191-.14.629-.552.654-.8.061-.612-.477-.227-.822-.119a1.733,1.733,0,0,1-1.695-.246C218.1,146.636,217.788,145.427,218.374,145.2Zm-.2-2.016c.159-.424.188-.851.74-1.119.48-.149.828-.123,1.1.367a3.587,3.587,0,0,1,.256,1.372c-.082.243-.145.154-.43.194a4.849,4.849,0,0,1-1.486-.051C218.172,143.9,218.089,143.455,218.174,143.181Z" transform="translate(-185.481 -116.239)" fill="#fff"/><path d="M324.7,146.993a1.036,1.036,0,0,1-1.021-.349c-.259-.168-.161-1.98-.186-2.19.058-.552.005-1.781.007-1.838a3.2,3.2,0,0,0-.157-1.051.947.947,0,0,0-.289-.465,3.061,3.061,0,0,0-1.777-.45,3.331,3.331,0,0,0-.954.093c-.327.1-.658.3-.6.625.029.149,0,.565.3.595.578.058,1.174-.365,1.738-.007a1.006,1.006,0,0,1,.417.82,8.441,8.441,0,0,1-.046.9,3.081,3.081,0,0,0-.623-.106,3.027,3.027,0,0,0-2.127.448,2.986,2.986,0,0,0-.864,1.384,2.5,2.5,0,0,0,.7,2.39,2.392,2.392,0,0,0,1.891.528,2.249,2.249,0,0,0,1.414-.663c.208-.119.282.317.441.423s.832.386,1.219.119C324.394,147.868,324.821,147.439,324.7,146.993Zm-2.564-.483a1.619,1.619,0,0,1-1.663.612,1.183,1.183,0,0,1-.888-1.006,1.291,1.291,0,0,1,1.025-1.622,2.218,2.218,0,0,1,1.486.153C322.339,144.852,322.2,146.441,322.139,146.51Z" transform="translate(-263.283 -116.256)" fill="#fff"/><path d="M242.959,63.911a2.116,2.116,0,0,0-1.254-.155,4.7,4.7,0,0,0-1.364.544c-.157-.355-1.405-1.261-1.754-.773a1.093,1.093,0,0,0-.08.889c.126.3.482.263.724.4.43.236.483.759.539,1.194a9.03,9.03,0,0,1,.038,1.5c-.008.214.092,1.093-.063,1.248-.188.208-.271.166-.476.179-.317.063-.469.142-.431.489a.7.7,0,0,0,.7.7,8.318,8.318,0,0,1,1.717.149.858.858,0,0,0,.446-.862c-.009-.123-.252-.259-.346-.307-.261-.132-.284-.074-.3-.386-.024-.559.019-1.117.015-1.677,0-.5-.36-1.7.258-1.992.567-.267,1.535.839,1.941.243A1.109,1.109,0,0,0,242.959,63.911Z" transform="translate(-202.078 -57.152)" fill="#fff"/><path d="M284.431,63.984c-.3-.183-.158-1.116-.159-1.391,0-.647,0-1.294,0-1.941,0-1.321.018-2.643.019-3.965q0-.657,0-1.315c0-.271.132-.658,0-.909s-.511-.306-.756-.4c-.41-.156-.883-.5-1.342-.417-.351.062-.745.456-.615.843s1.066.344,1.332.706a12.124,12.124,0,0,1,.031,1.669c-.018.4.045,1.417-.007,1.831.019-.15-.927-.316-1.042-.324a3.311,3.311,0,0,0-1.024.095,2.96,2.96,0,0,0-1.615,1.174,3.878,3.878,0,0,0-.233,3.494,2.6,2.6,0,0,0,1.785,1.585,3.815,3.815,0,0,0,1.249.182c.156-.006,1.141-.3,1.2-.25l.7.6c.021.122.234.257.343.21.336-.4.475-.764.8-1.229C285,63.883,284.873,64.258,284.431,63.984Zm-2.487-.352a1.636,1.636,0,0,1-1.35-.336,2.388,2.388,0,0,1-.606-1.909,1.988,1.988,0,0,1,.917-1.678,1.647,1.647,0,0,1,1.8.406,5.141,5.141,0,0,1,.2,2.262A1.041,1.041,0,0,1,281.944,63.632Z" transform="translate(-232.885 -49.693)" fill="#fff"/><path d="M121.837,134.707a.709.709,0,1,0-.708.709A.708.708,0,0,0,121.837,134.707Z" transform="translate(-111.791 -111.167)" fill="#fff"/><path d="M281.848,133.54a.709.709,0,1,0-.709.709A.709.709,0,0,0,281.848,133.54Z" transform="translate(-234.193 -110.275)" fill="#fff"/><g transform="translate(42.08 5.357)"><path d="M265.958,73.907a.649.649,0,0,0-.255-.464c-.6-.183-.423-1.587-.423-2.521,0,0,.056-1.952,0-2.275a1.277,1.277,0,0,0-.865-.941,3.254,3.254,0,0,0-1.357-.273c-.254.036-.338.484-.31.75.228.454.721.3,1.134.671.271.244.074,1.251.076,1.642,0,.439.009.877.012,1.315a3.452,3.452,0,0,0,0,1.089h-.021l.018.006,0,0a.018.018,0,0,1,0,0l-.006,0c-.3.17-.675.116-.939.321-.122.135-.283.479-.045.657a2.623,2.623,0,0,0,1.109.263c.522.075,1.045.133,1.561.241C265.8,74.273,265.984,74.217,265.958,73.907Z" transform="translate(-262.743 -65.599)" fill="#fff"/><path d="M269.135,60.364a.709.709,0,1,0-.708.709A.708.708,0,0,0,269.135,60.364Z" transform="translate(-266.549 -59.656)" fill="#fff"/></g></g><g transform="translate(38.432 41.428)"><path d="M174.679,214.253a2.751,2.751,0,0,1,1.457-2.305q1.462-.96,1.468-1.63v-1.955a.6.6,0,0,0-.673-.675h-.011a.6.6,0,0,0-.679.675V209.7h-1.562v-1.335q0-2.1,2.241-2.1t2.246,2.1v1.99a2.777,2.777,0,0,1-1.463,2.336q-1.463.96-1.463,1.686v.6h2.925v1.417h-4.487Z" transform="translate(-174.679 -206.266)" fill="#fff"/><path d="M204.129,214.456q0,2.092-2.246,2.092t-2.241-2.092v-6.093q0-2.1,2.241-2.1t2.246,2.1Zm-1.562-6.093a.6.6,0,0,0-.679-.675h-.011a.6.6,0,0,0-.673.675v6.093a.682.682,0,0,0,1.363,0Z" transform="translate(-193.775 -206.266)" fill="#fff"/><path d="M224.6,214.253a2.75,2.75,0,0,1,1.457-2.305q1.462-.96,1.468-1.63v-1.955a.6.6,0,0,0-.673-.675h-.011a.6.6,0,0,0-.679.675V209.7H224.6v-1.335q0-2.1,2.241-2.1t2.247,2.1v1.99a2.777,2.777,0,0,1-1.463,2.336q-1.463.96-1.463,1.686v.6h2.926v1.417H224.6Z" transform="translate(-212.871 -206.266)" fill="#fff"/><path d="M254.056,214.456q0,2.092-2.246,2.092t-2.241-2.092v-6.093q0-2.1,2.241-2.1t2.246,2.1Zm-1.562-6.093a.6.6,0,0,0-.679-.675H251.8a.6.6,0,0,0-.673.675v6.093a.682.682,0,0,0,1.363,0Z" transform="translate(-231.967 -206.266)" fill="#fff"/></g><path d="M77.608,54.378a36.223,36.223,0,0,0,12.209-12.8,35.8,35.8,0,0,0,4.716-17.634A36.1,36.1,0,0,0,89.358,4.917a35.585,35.585,0,0,1,5.576,19.025,35.912,35.912,0,0,1-4.575,17.935A36.641,36.641,0,0,1,78.009,55ZM9.061,41.877A35.912,35.912,0,0,1,4.486,23.942,35.587,35.587,0,0,1,10.062,4.917,36.106,36.106,0,0,0,4.886,23.942,35.8,35.8,0,0,0,9.6,41.576a36.223,36.223,0,0,0,12.209,12.8l-.4.622A36.642,36.642,0,0,1,9.061,41.877Zm75.5,8.394c1.189-1.88,3.637-2.456,5.731-2.4a10.681,10.681,0,0,1,2.164.275,8.951,8.951,0,0,1-1.707,1.678,6.459,6.459,0,0,1-3.7,1.351A3.718,3.718,0,0,1,84.564,50.272Zm-75.9-.451a8.956,8.956,0,0,1-1.707-1.678,10.675,10.675,0,0,1,2.164-.275c2.095-.052,4.542.524,5.731,2.4a3.717,3.717,0,0,1-2.488.9A6.459,6.459,0,0,1,8.668,49.821Zm74.1-6.327a8.262,8.262,0,0,1,.788-1.624,7.934,7.934,0,0,1,1.064,1.779c.791,1.859.74,4.352-1.162,5.522A5.769,5.769,0,0,1,82.767,43.494ZM14.8,43.649a7.919,7.919,0,0,1,1.064-1.779,8.272,8.272,0,0,1,.788,1.624,5.768,5.768,0,0,1-.689,5.677C14.062,48,14.011,45.507,14.8,43.649ZM88.212,46c.972-2.034,3.017-2.943,5.172-3.213a10.629,10.629,0,0,1,2.128-.043,8.73,8.73,0,0,1-1,1.445,6.22,6.22,0,0,1-4.4,2.349A3.573,3.573,0,0,1,88.212,46Zm-83.3-1.811a8.718,8.718,0,0,1-1-1.445,10.63,10.63,0,0,1,2.128.043c2.155.27,4.2,1.179,5.172,3.213a3.575,3.575,0,0,1-1.9.538A6.22,6.22,0,0,1,4.912,44.186Zm81.2-6.172a7.858,7.858,0,0,1,1.283,1.569c1.086,1.79,1.265,4.009-.387,5.53C85.016,43.4,85.11,40.266,86.108,38.014Zm-74.08,1.569a7.856,7.856,0,0,1,1.283-1.569c1,2.252,1.093,5.389-.9,7.1C10.764,43.591,10.942,41.373,12.029,39.582Zm79.084,1.769c.5-2.05,2.577-3.254,4.476-3.8a10.463,10.463,0,0,1,2.06-.372,8.325,8.325,0,0,1-1.049,2,5.388,5.388,0,0,1-4.1,2.452A3.566,3.566,0,0,1,91.113,41.351ZM2.82,39.179a8.316,8.316,0,0,1-1.048-2,10.462,10.462,0,0,1,2.06.372c1.9.543,3.978,1.747,4.476,3.8a3.565,3.565,0,0,1-1.383.281A5.388,5.388,0,0,1,2.82,39.179Zm85.193-5.217a7.654,7.654,0,0,1,1.447,1.369c1.2,1.49,1.83,3.8.383,5.35C87.675,39.284,87.318,36.263,88.013,33.962ZM9.96,35.331a7.655,7.655,0,0,1,1.447-1.369c.695,2.3.338,5.322-1.83,6.719C8.13,39.13,8.763,36.821,9.96,35.331Zm83.262,1.213c.179-2.076,2.013-3.58,3.783-4.411a10.283,10.283,0,0,1,1.944-.685,8.349,8.349,0,0,1-.722,2.12c-.8,1.6-2.324,3.079-4.161,3.079A3.523,3.523,0,0,1,93.223,36.544ZM1.192,33.569a8.34,8.34,0,0,1-.722-2.12,10.288,10.288,0,0,1,1.944.685c1.77.831,3.6,2.334,3.783,4.411a3.523,3.523,0,0,1-.845.1C3.515,36.648,1.995,35.167,1.192,33.569Zm88.119-3.88a7.429,7.429,0,0,1,1.579,1.163c1.36,1.325,2.247,3.518,1.033,5.225C89.628,34.99,88.916,32.067,89.31,29.689ZM8.531,30.853a7.439,7.439,0,0,1,1.579-1.163c.395,2.378-.318,5.3-2.612,6.389C6.284,34.371,7.172,32.177,8.531,30.853Zm86.087.681c-.132-2.064,1.413-3.834,3.018-4.934a10.063,10.063,0,0,1,1.784-.976,8.468,8.468,0,0,1-.385,2.2c-.586,1.839-2.029,3.72-4.109,3.719Q94.775,31.547,94.618,31.533ZM.385,27.828A8.485,8.485,0,0,1,0,25.623a10.085,10.085,0,0,1,1.784.976c1.6,1.1,3.15,2.871,3.018,4.934q-.156.014-.308.014C2.414,31.547.971,29.666.385,27.828Zm89.6-2.582a7.239,7.239,0,0,1,1.68.958c1.5,1.154,2.615,3.224,1.648,5.06C90.905,30.476,89.9,27.633,89.987,25.246ZM7.753,26.2a7.247,7.247,0,0,1,1.68-.958c.088,2.387-.918,5.231-3.328,6.018C5.138,29.428,6.257,27.358,7.753,26.2Zm89.734-5.16a9.7,9.7,0,0,1,1.585-1.211c.284,2.616-.686,6.212-3.775,6.554C94.9,24.3,96.032,22.457,97.487,21.044ZM.349,19.833a9.7,9.7,0,0,1,1.584,1.211c1.455,1.413,2.589,3.251,2.191,5.344C1.034,26.045.065,22.449.349,19.833Zm89.683.9a6.959,6.959,0,0,1,1.752.728,4.916,4.916,0,0,1,2.18,2.484,3.371,3.371,0,0,1,.051,2.363C91.481,25.708,90.243,23.094,90.032,20.729ZM5.457,23.942a4.916,4.916,0,0,1,2.179-2.484,6.962,6.962,0,0,1,1.753-.728c-.212,2.365-1.45,4.978-3.983,5.576A3.367,3.367,0,0,1,5.457,23.942Zm84.022-7.52a6.853,6.853,0,0,1,1.788.481c1.717.733,3.193,2.41,2.748,4.376C91.607,21.113,89.955,18.653,89.478,16.422ZM8.154,16.9a6.854,6.854,0,0,1,1.788-.481c-.477,2.231-2.128,4.691-4.536,4.857C4.96,19.313,6.437,17.636,8.154,16.9Zm88.453-1.126a9.587,9.587,0,0,1,1.365-1.38,7.955,7.955,0,0,1,.264,2.088c-.017,1.929-.88,4.234-2.983,4.7C94.543,19.3,95.413,17.259,96.607,15.777Zm-95.423.708A7.964,7.964,0,0,1,1.448,14.4a9.6,9.6,0,0,1,1.365,1.38c1.193,1.481,2.063,3.526,1.353,5.411C2.064,20.72,1.2,18.414,1.184,16.486ZM88.4,12.369a6.749,6.749,0,0,1,1.79.253c1.725.5,3.374,1.919,3.165,3.858q-.1.006-.206.006C90.885,16.486,89.091,14.424,88.4,12.369ZM6.07,16.48c-.209-1.938,1.439-3.362,3.165-3.858a6.747,6.747,0,0,1,1.79-.253c-.7,2.055-2.489,4.117-4.749,4.117Q6.173,16.486,6.07,16.48Zm89.022-5.586A9.375,9.375,0,0,1,96.226,9.38c1.011,2.381.873,5.872-1.7,6.852C93.567,14.537,94.148,12.46,95.091,10.894ZM3.195,9.38a9.4,9.4,0,0,1,1.135,1.514c.943,1.566,1.524,3.643.562,5.338C2.321,15.252,2.184,11.76,3.195,9.38Zm83.648-.788a6.639,6.639,0,0,1,1.766.045c1.713.284,3.483,1.463,3.492,3.357a3.682,3.682,0,0,1-.639.056C89.446,12.049,87.682,10.39,86.843,8.591Zm-79.524,3.4C7.328,10.1,9.1,8.92,10.811,8.636a6.641,6.641,0,0,1,1.767-.045c-.84,1.8-2.6,3.458-4.62,3.458A3.684,3.684,0,0,1,7.319,11.993ZM93.031,6.417a9.244,9.244,0,0,1,.9-1.613c1.3,2.156,1.617,5.5-.724,6.8C92.032,10.115,92.33,8.042,93.031,6.417ZM5.492,4.8a9.257,9.257,0,0,1,.9,1.613c.7,1.625,1,3.7-.174,5.189C3.874,10.307,4.192,6.96,5.492,4.8Zm79.384.307A6.494,6.494,0,0,1,86.6,4.969c1.685.093,3.536,1.04,3.744,2.873a3.619,3.619,0,0,1-1.029.149A5.581,5.581,0,0,1,84.875,5.111Zm-75.8,2.73c.208-1.833,2.059-2.78,3.744-2.873a6.494,6.494,0,0,1,1.722.143,5.581,5.581,0,0,1-4.437,2.879A3.62,3.62,0,0,1,9.079,7.842ZM90.507,2.364A9.08,9.08,0,0,1,91.166.686a7.049,7.049,0,0,1,.986,1.619c.716,1.649.786,3.84-.792,5.028C90.02,6.06,90.043,4.017,90.507,2.364ZM7.268,2.305A7.057,7.057,0,0,1,8.254.686a9.066,9.066,0,0,1,.659,1.678c.464,1.653.487,3.7-.853,4.968C6.482,6.145,6.552,3.954,7.268,2.305Zm78.8-.688A8.461,8.461,0,0,1,85.731,0c2.254.567,4.376,2.67,3.613,4.9A4.319,4.319,0,0,1,86.067,1.617ZM13.689,0a8.461,8.461,0,0,1-.336,1.617A4.319,4.319,0,0,1,10.076,4.9C9.313,2.67,11.435.567,13.689,0Z" transform="translate(0 0)" fill="#fff"/></svg>